<svg width="77" height="78" viewBox="0 0 77 78" fill="none" xmlns="http://www.w3.org/2000/svg">
<circle cx="38.4614" cy="39.1758" r="38.4426" fill="white"/>
<path d="M41.7114 58.6758C45.5682 58.6758 49.3383 57.5321 52.545 55.3894C55.7518 53.2468 58.2512 50.2013 59.7271 46.6381C61.203 43.075 61.5891 39.1542 60.8367 35.3715C60.0843 31.5889 58.2271 28.1143 55.5 25.3872C52.7729 22.6601 49.2983 20.8029 45.5157 20.0505C41.7331 19.2981 37.8123 19.6842 34.2491 21.1601C30.6859 22.636 27.6405 25.1354 25.4978 28.3422C23.3551 31.5489 22.2114 35.3191 22.2114 39.1758V49.2508L16.3614 43.4008L14.0864 45.6758L23.8364 55.4258L33.5864 45.6758L31.3114 43.4008L25.4614 49.2508V39.1758C25.4614 35.9618 26.4145 32.8201 28.2 30.1478C29.9856 27.4755 32.5235 25.3927 35.4928 24.1627C38.4621 22.9328 41.7295 22.611 44.8816 23.238C48.0338 23.865 50.9293 25.4127 53.2019 27.6853C55.4745 29.9579 57.0222 32.8534 57.6492 36.0056C58.2762 39.1578 57.9544 42.4251 56.7245 45.3944C55.4945 48.3637 53.4117 50.9016 50.7394 52.6872C48.0671 54.4727 44.9254 55.4258 41.7114 55.4258V58.6758Z" fill="#292929"/>
</svg>
