<svg width="78" height="78" viewBox="0 0 78 78" fill="none" xmlns="http://www.w3.org/2000/svg">
<circle cx="39.24" cy="38.6648" r="38.4426" fill="white"/>
<path d="M35.7504 22.6585C36.6379 19.0002 41.8421 19.0002 42.7296 22.6585C42.8627 23.2081 43.1238 23.7185 43.4915 24.1481C43.8592 24.5778 44.3231 24.9145 44.8455 25.1309C45.3679 25.3474 45.9341 25.4374 46.4979 25.3937C47.0617 25.35 47.6072 25.1738 48.09 24.8794C51.3046 22.921 54.9858 26.6002 53.0275 29.8169C52.7335 30.2995 52.5576 30.8447 52.514 31.4081C52.4704 31.9715 52.5603 32.5372 52.7765 33.0593C52.9927 33.5814 53.329 34.0452 53.7582 34.4128C54.1873 34.7805 54.6971 35.0417 55.2462 35.1752C58.9046 36.0627 58.9046 41.2669 55.2462 42.1544C54.6967 42.2875 54.1863 42.5486 53.7567 42.9163C53.327 43.284 52.9903 43.7479 52.7739 44.2703C52.5574 44.7927 52.4674 45.3589 52.5111 45.9227C52.5548 46.4865 52.731 47.032 53.0254 47.5148C54.9837 50.7294 51.3046 54.4106 48.0879 52.4523C47.6053 52.1583 47.0601 51.9824 46.4967 51.9388C45.9333 51.8952 45.3676 51.9851 44.8454 52.2013C44.3233 52.4175 43.8596 52.7538 43.492 53.183C43.1243 53.6121 42.8631 54.122 42.7296 54.671C41.8421 58.3294 36.6379 58.3294 35.7504 54.671C35.6172 54.1215 35.3562 53.6111 34.9885 53.1815C34.6208 52.7518 34.1569 52.4151 33.6345 52.1987C33.112 51.9822 32.5459 51.8922 31.9821 51.9359C31.4183 51.9796 30.8728 52.1558 30.39 52.4502C27.1754 54.4085 23.4942 50.7294 25.4525 47.5127C25.7465 47.0301 25.9224 46.4849 25.966 45.9215C26.0096 45.3581 25.9197 44.7924 25.7035 44.2703C25.4873 43.7481 25.1509 43.2844 24.7218 42.9168C24.2927 42.5491 23.7828 42.2879 23.2337 42.1544C19.5754 41.2669 19.5754 36.0627 23.2337 35.1752C23.7833 35.042 24.2937 34.781 24.7233 34.4133C25.1529 34.0456 25.4897 33.5817 25.7061 33.0593C25.9226 32.5368 26.0126 31.9707 25.9689 31.4069C25.9252 30.8431 25.749 30.2976 25.4546 29.8148C23.4962 26.6002 27.1754 22.919 30.3921 24.8773C32.4754 26.144 35.1754 25.0231 35.7504 22.6585Z" stroke="#292929" stroke-width="2.66667" stroke-linecap="round" stroke-linejoin="round"/>
<path d="M32.99 38.6648C32.99 40.3224 33.6485 41.9121 34.8206 43.0842C35.9927 44.2563 37.5824 44.9148 39.24 44.9148C40.8976 44.9148 42.4873 44.2563 43.6594 43.0842C44.8315 41.9121 45.49 40.3224 45.49 38.6648C45.49 37.0072 44.8315 35.4175 43.6594 34.2454C42.4873 33.0733 40.8976 32.4148 39.24 32.4148C37.5824 32.4148 35.9927 33.0733 34.8206 34.2454C33.6485 35.4175 32.99 37.0072 32.99 38.6648Z" stroke="#292929" stroke-width="2.66667" stroke-linecap="round" stroke-linejoin="round"/>
</svg>
